<svg id="category" xmlns="http://www.w3.org/2000/svg" width="27.99" height="27.99" viewBox="0 0 27.99 27.99">
  <path id="Vector" d="M3.5,9.33H5.831q3.5,0,3.5-3.5V3.5q0-3.5-3.5-3.5H3.5Q0,0,0,3.5V5.831Q0,9.33,3.5,9.33Z" transform="translate(2.333 2.333)" fill="none" stroke="#fff" stroke-linecap="round" stroke-linejoin="round" stroke-width="1.5"/>
  <path id="Vector-2" data-name="Vector" d="M3.5,9.33H5.831q3.5,0,3.5-3.5V3.5q0-3.5-3.5-3.5H3.5Q0,0,0,3.5V5.831Q0,9.33,3.5,9.33Z" transform="translate(16.328 2.333)" fill="none" stroke="#fff" stroke-linecap="round" stroke-linejoin="round" stroke-width="1.5"/>
  <path id="Vector-3" data-name="Vector" d="M3.5,9.33H5.831q3.5,0,3.5-3.5V3.5q0-3.5-3.5-3.5H3.5Q0,0,0,3.5V5.831Q0,9.33,3.5,9.33Z" transform="translate(16.328 16.328)" fill="none" stroke="#fff" stroke-linecap="round" stroke-linejoin="round" stroke-width="1.5"/>
  <path id="Vector-4" data-name="Vector" d="M3.5,9.33H5.831q3.5,0,3.5-3.5V3.5q0-3.5-3.5-3.5H3.5Q0,0,0,3.5V5.831Q0,9.33,3.5,9.33Z" transform="translate(2.333 16.328)" fill="none" stroke="#fff" stroke-linecap="round" stroke-linejoin="round" stroke-width="1.5"/>
  <path id="Vector-5" data-name="Vector" d="M0,0H27.99V27.99H0Z" fill="none" opacity="0"/>
</svg>
