<svg xmlns="http://www.w3.org/2000/svg" width="16.179" height="16.862" viewBox="0 0 16.179 16.862">
  <g id="Group_107" data-name="Group 107" transform="translate(0 0)">
    <path id="Path_237" data-name="Path 237" d="M25.758,8.647a.494.494,0,0,1,0-.437l.629-1.287a1.464,1.464,0,0,0-.632-1.944l-1.265-.671a.494.494,0,0,1-.257-.353l-.247-1.41a1.464,1.464,0,0,0-1.653-1.2l-1.418.2A.494.494,0,0,1,20.5,1.41l-1.029-1a1.464,1.464,0,0,0-2.044,0l-1.029,1a.494.494,0,0,1-.415.135l-1.418-.2a1.464,1.464,0,0,0-1.653,1.2l-.247,1.41a.494.494,0,0,1-.257.353l-1.265.671a1.464,1.464,0,0,0-.632,1.944l.629,1.286a.494.494,0,0,1,0,.437L10.51,9.934a1.464,1.464,0,0,0,.632,1.944l1.265.671a.494.494,0,0,1,.257.353l.247,1.41a1.463,1.463,0,0,0,1.443,1.216,1.5,1.5,0,0,0,.211-.015l1.418-.2a.494.494,0,0,1,.415.135l1.029,1a1.464,1.464,0,0,0,2.044,0l1.029-1a.5.5,0,0,1,.415-.135l1.418.2a1.464,1.464,0,0,0,1.653-1.2l.247-1.41a.494.494,0,0,1,.257-.353l1.265-.671a1.464,1.464,0,0,0,.632-1.944ZM16.5,4.053a1.783,1.783,0,1,1-1.783,1.783A1.785,1.785,0,0,1,16.5,4.053Zm-.92,7.929a.486.486,0,0,1-.688-.688l6.418-6.418A.486.486,0,0,1,22,5.564Zm4.81.823a1.783,1.783,0,1,1,1.783-1.783A1.785,1.785,0,0,1,20.394,12.805Z" transform="translate(-10.359 0.002)" fill="#7a8db5"/>
  </g>
</svg>
