<svg xmlns="http://www.w3.org/2000/svg" width="30" height="30" viewBox="0 0 30 30">
  <g id="Group_15701" data-name="Group 15701" transform="translate(-1122 -1075)">
    <rect id="Rectangle_4118" data-name="Rectangle 4118" width="30" height="30" rx="7" transform="translate(1122 1075)" fill="#00488f"/>
    <g id="seo-and-web" transform="translate(1058.627 1079.149)">
      <g id="Group_757" data-name="Group 757" transform="translate(70.573)">
        <path id="Path_542" data-name="Path 542" d="M78.432,0a7.868,7.868,0,0,0-7.859,7.859c0,5.378,7.033,13.273,7.333,13.607a.708.708,0,0,0,1.053,0c.3-.333,7.333-8.229,7.333-13.607A7.868,7.868,0,0,0,78.432,0Zm0,11.813a3.954,3.954,0,1,1,3.954-3.954A3.959,3.959,0,0,1,78.432,11.813Z" transform="translate(-70.573)" fill="#fedd12"/>
      </g>
    </g>
  </g>
</svg>
