<svg id="notification" xmlns="http://www.w3.org/2000/svg" width="27.31" height="27.31" viewBox="0 0 27.31 27.31">
  <path id="Vector" d="M9.155,0A6.833,6.833,0,0,0,2.328,6.827v3.289A5.437,5.437,0,0,1,1.68,12.46L.371,14.633A2.184,2.184,0,0,0,1.6,17.967a23.806,23.806,0,0,0,15.1,0,2.278,2.278,0,0,0,1.229-3.334L16.62,12.46a5.587,5.587,0,0,1-.637-2.344V6.827A6.847,6.847,0,0,0,9.155,0Z" transform="translate(4.522 3.311)" fill="none" stroke="#00488f" stroke-linecap="round" stroke-width="1.5"/>
  <path id="Vector-2" data-name="Vector" d="M4.21,1.434a6.889,6.889,0,0,0-1.092-.228A7.685,7.685,0,0,0,0,1.434a2.262,2.262,0,0,1,4.21,0Z" transform="translate(11.572 2.208)" fill="none" stroke="#00488f" stroke-linecap="round" stroke-linejoin="round" stroke-width="1.5"/>
  <path id="Vector-3" data-name="Vector" d="M6.827,0A3.424,3.424,0,0,1,3.414,3.414,3.426,3.426,0,0,1,1,2.412,3.426,3.426,0,0,1,0,0" transform="translate(10.264 21.688)" fill="none" stroke="#00488f" stroke-width="1.5"/>
  <path id="Vector-4" data-name="Vector" d="M0,0H27.31V27.31H0Z" fill="none" opacity="0"/>
</svg>
