<svg id="document-normal" xmlns="http://www.w3.org/2000/svg" width="27.98" height="27.98" viewBox="0 0 27.98 27.98">
  <path id="Vector" d="M2.332,4.663H7c2.332,0,2.332-1.166,2.332-2.332C9.327,0,8.161,0,7,0H2.332C1.166,0,0,0,0,2.332S1.166,4.663,2.332,4.663Z" transform="translate(9.327 2.332)" fill="none" stroke="#fff" stroke-linecap="round" stroke-linejoin="round" stroke-width="1.5"/>
  <path id="Vector-2" data-name="Vector" d="M15.156,0c3.882.21,5.829,1.644,5.829,6.972v7c0,4.663-1.166,7-7,7H7c-5.829,0-7-2.332-7-7v-7C0,1.656,1.947.21,5.829,0" transform="translate(3.498 4.687)" fill="none" stroke="#fff" stroke-linecap="round" stroke-linejoin="round" stroke-width="1.5"/>
  <path id="Vector-3" data-name="Vector" d="M0,0H27.98V27.98H0Z" fill="none" opacity="0"/>
</svg>
