<svg id="setting-2" xmlns="http://www.w3.org/2000/svg" width="27.898" height="27.898" viewBox="0 0 27.898 27.898">
  <path id="Vector" d="M6.975,3.487A3.487,3.487,0,1,1,3.487,0,3.487,3.487,0,0,1,6.975,3.487Z" transform="translate(10.462 10.462)" fill="none" stroke="#00488f" stroke-linecap="round" stroke-linejoin="round" stroke-width="1.5"/>
  <path id="Vector-2" data-name="Vector" d="M0,12V9.949A2.215,2.215,0,0,1,2.209,7.741c2.1,0,2.964-1.488,1.906-3.313a2.208,2.208,0,0,1,.814-3.011L6.94.266a1.94,1.94,0,0,1,2.65.7l.128.221c1.046,1.825,2.767,1.825,3.824,0L13.67.964a1.94,1.94,0,0,1,2.65-.7l2.011,1.151a2.208,2.208,0,0,1,.814,3.011c-1.058,1.825-.2,3.313,1.906,3.313A2.215,2.215,0,0,1,23.26,9.949V12A2.215,2.215,0,0,1,21.052,14.2c-2.1,0-2.964,1.488-1.906,3.313a2.2,2.2,0,0,1-.814,3.011l-2.011,1.151a1.94,1.94,0,0,1-2.65-.7l-.128-.221c-1.046-1.825-2.767-1.825-3.824,0l-.128.221a1.94,1.94,0,0,1-2.65.7L4.929,20.527a2.208,2.208,0,0,1-.814-3.011c1.058-1.825.2-3.313-1.906-3.313A2.215,2.215,0,0,1,0,12Z" transform="translate(2.325 2.977)" fill="none" stroke="#00488f" stroke-linecap="round" stroke-linejoin="round" stroke-width="1.5"/>
  <path id="Vector-3" data-name="Vector" d="M0,0H27.9V27.9H0Z" fill="none" opacity="0"/>
</svg>
